<?xml version="1.0" encoding="utf-8"?>
<!-- Generator: Adobe Illustrator 25.2.1, SVG Export Plug-In . SVG Version: 6.00 Build 0)  -->
<svg version="1.1" id="Layer_1" xmlns="http://www.w3.org/2000/svg" xmlns:xlink="http://www.w3.org/1999/xlink" x="0px" y="0px"
	 viewBox="0 0 108 108" style="enable-background:new 0 0 108 108;" xml:space="preserve">
<style type="text/css">
	.st0{fill:#1F2937;stroke:#E8E8E8;stroke-width:2.126;stroke-miterlimit:10;}
	.st1{fill:#526B97;}
	.st2{fill:#FFFFFF;}
</style>
<path class="st0" d="M88.9,106.9H19.1c-9.9,0-18-8.1-18-18V19.1c0-9.9,8.1-18,18-18h69.8c9.9,0,18,8.1,18,18v69.8
	C106.9,98.8,98.8,106.9,88.9,106.9z"/>
<g>
	<g>
		<path class="st1" d="M16.2,99.6v-12h1.3c0.4,0,0.8-0.1,1-0.8c0.2-0.6,0.5-2,0.5-5.4V34h11.1v45.4c0,8.2-0.9,13.4-2.7,16.1
			c-1.9,2.7-5.2,4.1-10,4.1H16.2z M24.5,31.7c-1.7,0-3.1-0.8-4.3-2.3c-1.1-1.4-1.7-3.1-1.7-5c0-2,0.6-3.7,1.7-5.1
			c1.2-1.5,2.6-2.3,4.4-2.3c1.8,0,3.3,0.7,4.5,2.2c1.1,1.4,1.7,3.1,1.7,5.2c0,2-0.6,3.7-1.8,5.1C27.7,31,26.2,31.7,24.5,31.7z"/>
		<path class="st2" d="M24.5,18.1c1.4,0,2.6,0.6,3.6,1.8c1,1.2,1.5,2.7,1.5,4.5c0,1.7-0.5,3.2-1.5,4.4c-1,1.2-2.2,1.8-3.6,1.8
			c-1.3,0-2.5-0.6-3.5-1.9c-1-1.2-1.5-2.7-1.5-4.4c0-1.7,0.5-3.2,1.4-4.5C21.9,18.7,23.1,18.1,24.5,18.1 M29.1,35.1v44.3
			c0,7.9-0.8,13-2.5,15.5c-1.7,2.4-4.7,3.7-9.1,3.7h-0.2v-9.9h0.3c1,0,1.6-0.5,2-1.5c0.4-1,0.6-2.9,0.6-5.8V35.1H29.1 M24.5,16
			c-2.1,0-3.9,0.9-5.2,2.7c-1.3,1.6-1.9,3.6-1.9,5.8c0,2.1,0.7,4.1,2,5.7c1.8,2.2,3.8,2.7,5.2,2.7c2,0,3.8-0.9,5.2-2.6
			c1.3-1.6,2-3.5,2-5.8c0-2.3-0.7-4.2-1.9-5.8C28.4,16.9,26.6,16,24.5,16L24.5,16z M31.2,33h-2.1h-9h-2.1v2.1v46.3
			c0,3.5-0.3,4.7-0.4,5c0,0,0,0.1,0,0.1h-0.2h-2.1v2.1v9.9v2.1h2.1h0.2c5.1,0,8.8-1.5,10.8-4.6c2-2.8,2.9-8.3,2.9-16.7V35.1V33
			L31.2,33z"/>
	</g>
	<g>
		<path class="st1" d="M48,83.7c-4.1,0-7.5-1.5-10.1-4.5c-2.5-2.9-4.1-7-4.7-12.1l-0.1-0.9l10.7-3.6l0.1,1.3
			c0.2,2.4,0.8,4.3,1.6,5.6c0.8,1.1,1.6,1.7,2.7,1.7c0.9,0,1.7-0.4,2.3-1.3c0.7-1,1-2.3,1-3.9c0-1.6-0.4-3.1-1.1-4.5
			c-0.8-1.5-2.6-3.8-5.5-6.8c-4.1-4.4-7-8.1-8.5-11.1c-1.5-3.1-2.3-6.4-2.3-9.9c0-5.1,1.3-9.3,3.9-12.5c2.6-3.2,6.1-4.9,10.3-4.9
			c4,0,7.3,1.3,9.8,3.8c2.4,2.5,4,6.2,4.8,11l0.1,0.8l-10.1,4.4l-0.1-1.5c-0.2-2.4-0.7-4.1-1.4-5.3c-0.6-1-1.4-1.5-2.4-1.5
			c-0.9,0-1.6,0.4-2.2,1.1c-0.6,0.8-1,2-1,3.5c0,2.7,2.1,6.2,6.1,10.3c1,1.1,1.8,1.9,2.4,2.4c3.2,3.4,5.4,6.6,6.7,9.5
			c1.3,2.9,2,6.2,2,9.7c0,5.7-1.3,10.4-4,13.8C56.4,82,52.6,83.7,48,83.7z"/>
		<path class="st2" d="M48.4,17.5c3.8,0,6.8,1.2,9.1,3.5c2.3,2.3,3.8,5.8,4.5,10.4l-8,3.4c-0.2-2.5-0.8-4.5-1.6-5.8
			c-0.8-1.3-1.9-2-3.3-2c-1.3,0-2.3,0.5-3.1,1.6c-0.8,1-1.2,2.4-1.2,4.1c0,3,2.1,6.7,6.4,11.1c1,1.1,1.8,1.9,2.4,2.4
			c3.1,3.3,5.2,6.4,6.5,9.2c1.3,2.8,1.9,5.9,1.9,9.3c0,5.5-1.3,9.9-3.8,13.1c-2.5,3.2-5.9,4.8-10.3,4.8c-3.8,0-6.9-1.4-9.3-4.1
			c-2.4-2.7-3.9-6.6-4.4-11.5l8.6-2.9c0.3,2.6,0.9,4.6,1.8,6.1c0.9,1.4,2.1,2.1,3.6,2.1c1.3,0,2.3-0.6,3.1-1.7
			c0.8-1.2,1.2-2.7,1.2-4.5c0-1.8-0.4-3.4-1.2-5c-0.8-1.6-2.7-3.9-5.7-7.1c-4.1-4.3-6.8-7.9-8.3-10.9c-1.4-2.9-2.2-6.1-2.2-9.4
			c0-4.9,1.2-8.8,3.6-11.8C41.3,19,44.5,17.5,48.4,17.5 M48.4,15.3c-4.6,0-8.3,1.8-11.2,5.3c-2.7,3.4-4.1,7.8-4.1,13.2
			c0,3.7,0.8,7.2,2.4,10.4c1.5,3.2,4.4,6.9,8.6,11.4c3.5,3.7,4.8,5.6,5.3,6.6c0.7,1.3,1,2.6,1,4c0,1.4-0.3,2.5-0.8,3.3
			c-0.5,0.7-1,0.8-1.4,0.8c-0.5,0-1.1-0.1-1.8-1.2C45.7,68,45.2,66.2,45,64l-0.3-2.7l-2.5,0.8l-8.6,2.9L32,65.6l0.2,1.7
			c0.6,5.3,2.3,9.6,4.9,12.7c2.8,3.2,6.5,4.8,10.9,4.8c5,0,9-1.9,11.9-5.7c2.8-3.6,4.2-8.4,4.2-14.4c0-3.7-0.7-7.1-2.1-10.1
			c-1.3-3-3.7-6.3-6.9-9.8l0,0l0,0c-0.6-0.6-1.3-1.4-2.4-2.4C48,37.4,47,34.4,47,32.7c0-1.2,0.3-2.2,0.7-2.9
			c0.4-0.5,0.8-0.7,1.4-0.7c0.4,0,0.9,0.1,1.5,1c0.4,0.7,1,2.1,1.3,4.8l0.3,2.9l2.7-1.2l8-3.4l1.5-0.6L64.1,31
			c-0.8-5-2.4-8.9-5-11.5C56.3,16.7,52.8,15.3,48.4,15.3L48.4,15.3z"/>
	</g>
	<g>
		<path class="st1" d="M86,82.5l-7.6-26.3v26.3H66.7V17.6h13.2c5.6,0,9.9,1.6,12.8,4.8c2.9,3.2,4.4,7.8,4.4,13.9
			c0,4.2-0.8,7.7-2.2,10.6c-1.4,2.6-3.3,4.6-5.7,5.8l9.2,29.8H86z M78.5,44.6c2.2,0,3.8-0.6,5-2c1.2-1.4,1.8-3.3,1.8-5.9
			c0-2.5-0.6-4.5-1.7-5.7c-1.1-1.2-2.8-1.8-5.1-1.8L78.5,44.6C78.4,44.6,78.4,44.6,78.5,44.6z"/>
		<path class="st2" d="M79.9,18.7c5.3,0,9.3,1.5,12,4.5c2.7,3,4.1,7.4,4.1,13.2c0,4-0.7,7.4-2.1,10.1c-1.4,2.7-3.4,4.6-6.1,5.7
			l9.1,29.3H86.8l-8.5-29.6h-0.9v29.6h-9.6V18.7H79.9 M78.5,45.6c2.5,0,4.4-0.8,5.8-2.3c1.4-1.6,2.1-3.8,2.1-6.6c0-2.8-0.7-5-2-6.4
			c-1.4-1.5-3.3-2.2-6-2.2h-1v17.5c0.1,0,0.3,0,0.6,0C78.1,45.6,78.3,45.6,78.5,45.6 M79.9,16.5H67.8h-2.1v2.1v62.8v2.1h2.1h9.6h2.1
			v-2.1V63.7L84.7,82l0.4,1.5h1.6h10.1h2.9l-0.9-2.8l-8.5-27.6c2.3-1.3,4.1-3.3,5.4-5.8c1.6-3,2.4-6.8,2.4-11.1
			c0-6.3-1.6-11.2-4.6-14.6C90.4,18.3,85.8,16.5,79.9,16.5L79.9,16.5z M79.5,43.4V30.2c1.4,0.2,2.5,0.6,3.3,1.4c1,1,1.5,2.7,1.5,5
			c0,2.3-0.5,4-1.5,5.2C81.9,42.8,80.8,43.3,79.5,43.4L79.5,43.4z"/>
	</g>
</g>
</svg>
