<?xml version="1.0" encoding="utf-8"?>
<!-- Generator: Adobe Illustrator 25.2.1, SVG Export Plug-In . SVG Version: 6.00 Build 0)  -->
<svg version="1.1" id="Layer_1" xmlns="http://www.w3.org/2000/svg" xmlns:xlink="http://www.w3.org/1999/xlink" x="0px" y="0px"
	 viewBox="0 0 108 108" style="enable-background:new 0 0 108 108;" xml:space="preserve">
<style type="text/css">
	.st0{fill:#1F2937;}
	.st1{fill:#FFFFFF;}
</style>
<path class="st0" d="M88.9,106.9H19.1c-9.9,0-18-8.1-18-18V19.1c0-9.9,8.1-18,18-18h69.8c9.9,0,18,8.1,18,18v69.8
	C106.9,98.8,98.8,106.9,88.9,106.9z"/>
<g>
	<g>
		<path class="st1" d="M20.1,81.4V35.1h9v44.3c0,7.9-0.8,13-2.5,15.5s-4.7,3.7-9.1,3.7h-0.2v-9.9h0.3c1,0,1.6-0.5,2-1.5
			C19.9,86.2,20.1,84.3,20.1,81.4z M19.5,24.4c0-1.7,0.5-3.2,1.4-4.5s2.1-1.9,3.5-1.9c1.4,0,2.6,0.6,3.6,1.8c1,1.2,1.5,2.7,1.5,4.5
			c0,1.7-0.5,3.2-1.5,4.4c-1,1.2-2.2,1.8-3.6,1.8c-1.3,0-2.5-0.6-3.5-1.9C20,27.5,19.5,26.1,19.5,24.4z"/>
	</g>
	<g>
		<path class="st1" d="M34.3,67.1l8.6-2.9c0.3,2.6,0.9,4.6,1.8,6.1c0.9,1.4,2.1,2.1,3.6,2.1c1.3,0,2.3-0.6,3.1-1.7
			c0.8-1.2,1.2-2.7,1.2-4.5c0-1.8-0.4-3.4-1.2-5c-0.8-1.6-2.7-3.9-5.7-7.1c-4.1-4.3-6.8-7.9-8.3-10.9s-2.2-6.1-2.2-9.4
			c0-4.9,1.2-8.8,3.6-11.8c2.4-3,5.6-4.5,9.5-4.5c3.8,0,6.8,1.2,9.1,3.5c2.3,2.3,3.8,5.8,4.5,10.4l-8,3.4c-0.2-2.5-0.8-4.5-1.6-5.8
			c-0.8-1.3-1.9-2-3.3-2c-1.3,0-2.3,0.5-3.1,1.6s-1.2,2.4-1.2,4.1c0,3,2.1,6.7,6.4,11.1c1,1.1,1.8,1.9,2.4,2.4
			c3.1,3.3,5.2,6.4,6.5,9.2c1.3,2.8,1.9,5.9,1.9,9.3c0,5.5-1.3,9.9-3.8,13.1c-2.5,3.2-5.9,4.8-10.3,4.8c-3.8,0-6.9-1.4-9.3-4.1
			S34.8,72,34.3,67.1z"/>
	</g>
	<g>
		<path class="st1" d="M67.8,81.4V18.7h12.1c5.3,0,9.3,1.5,12,4.5c2.7,3,4.1,7.4,4.1,13.2c0,4-0.7,7.4-2.1,10.1
			c-1.4,2.7-3.4,4.6-6.1,5.7l9.1,29.3H86.8l-8.5-29.6h-0.9v29.6H67.8z M77.3,45.5c0.1,0,0.3,0,0.6,0c0.2,0,0.4,0,0.6,0
			c2.5,0,4.4-0.8,5.8-2.3c1.4-1.6,2.1-3.8,2.1-6.6c0-2.8-0.7-5-2-6.4c-1.4-1.5-3.3-2.2-6-2.2h-1V45.5z"/>
	</g>
</g>
</svg>
