<?xml version="1.0" encoding="utf-8"?>
<!-- Generator: Adobe Illustrator 25.2.1, SVG Export Plug-In . SVG Version: 6.00 Build 0)  -->
<svg version="1.1" id="Layer_1" xmlns="http://www.w3.org/2000/svg" xmlns:xlink="http://www.w3.org/1999/xlink" x="0px" y="0px"
	 viewBox="0 0 1302.5 596.9" style="enable-background:new 0 0 1302.5 596.9;" xml:space="preserve">
<style type="text/css">
	.st0{fill:#526B97;}
	.st1{fill:#FFFFFF;}
</style>
<g>
	<path class="st0" d="M450,7.2c22.3-41.4,16.7,108.2,18.8,120.5c-11,38,30.6-4.9,31.6,30.6c-4.8,21.3-22.3,34.6-36.2,49.9
		c-7.9,27.4-0.9,30.7,24,19.6c30.3-4.7,64.5-20.5,94.4-10.3c-22.6,44.1-91.8,51.4-120.1,92.7c22.9,24.1,67.4,15.2,98.8,19.7
		c66.8,1.6,140.3,5,203.4,3.3c44.2,0.1,91.4-2.4,133.8,5.8c-36.2,3.3-74.2-0.7-111.2,1.6c-31.6-3.8-427.2,25.1-310.9-54.8
		c12.7-12.7,137.6-73.6,72.3-62.5c-30.3,4.9-61.8,11.8-89.7,22.2c-3.5,22.9-41.9,152.9-62.7,75.7c-4.8-61.4,24.3-51-33.5-50.2
		c-1,42.7-1.2,88.1,12.3,128.7c0.8-10.3,7.4-35.4,15.5-34.7c-13.4,68.4-25.5,36.5-34.7-5.9c-6.6-81.7,4.5-164.4,7.1-246.9
		c-13.1,27.7-45.4,203.2-87.7,200.6c-17.3,0.8-30.1-30.8-42.6-19.8c-4.3,1.2-9.1-0.6-11.7-4c-6.4-5-14.2,6.9-22.7,0.6
		c-11.8-3.7-25-4.9-36.1,3.7c-10.8-3.3-4.4,5.3-1.6,12.5c0,11.9,16.3,29.7,5.3,29.5c-3.3-4.6-6.4-7.9-1.2-10.1
		c-1.7,0.3-3.8,2-5.1,0.2c-17.2-31.3-15.6-80.1-50.4-29.6c-32.7,24.7-18.6,61-21.1,96.2c-4.2,61.7-2.9,125.8-28,183.9
		c-48.2,61.1-37.9-112.8-30.2-134.5c4-43.6,34.2-87.2,47.7-125.5c-5.8-50.7-10.5-92.3-26.1-137.1c-8.1-23.5-20.2-45-32.1-66.9
		c-3.2-7.5-21.1-13.9-8.9-20.8c50,25.5,79,77.5,105.7,124.8c5.1,10.7,11.8,18,14.8,26.9c4.7,13.6,9.2,12.2,19.2,1.6
		c37.8-35.1,79.5-28.9,40.1,24.4c-3,4.4-12.3,12.1-0.8,7.8c25,13.2,21.9-5.3,35.2,2.8c8.5,12.2,13.9-10.3,32.7,14.7
		c26.3,26.2,37.8-3.4,48-26.3c12.4-29.6,26.1-64.1,30.2-90.5c13-27.1,38.9-159.5,37.4-54c-1.9,34.5-5.6,69.5-6.6,104.1
		c-0.4,14.4-12.4,53.1,7.4,31.1c17.3-10.2,33.8-17.4,37.9-38.3c5.8-31.3,39.8-49.3,47.9-75.3c0.1-29.5,1.9-61.1-1.2-88.9
		c-1.3-26,3.4-25.1-10.4-8.8C445.1,33.7,457,20.8,450,7.2z M363.1,110.5 M28.4,111.3C61,173.9,79.7,232.6,85.4,300.1
		c-2.5,23.3,37.4-31.3,44.4-40.3C104,208.7,76.8,153.1,28.4,111.3z M466.6,158.6c3.9,10-9.4,50.3,7.1,30.7
		C493,172,504.2,130.7,466.6,158.6z M443.1,178.6c-8.8,9-40.2,63.9-20.2,48.8c11.2-7,22.8-13.8,32.7-22.6
		C456.5,186.6,465.6,147.7,443.1,178.6z M451.3,217.3c-10.1,5.2-62.1,39.6-34.2,33.7C435,245.8,464.3,236.7,451.3,217.3z
		 M194.4,228.1c-37.8,14.5-67.4,36.1-38.7,58.3C173.3,278.2,212.2,244.5,194.4,228.1z M429.6,254.7c-37.7,3.5-26.3,51.6-16,76.9
		c5.2,14.3,24.8-39.7,26-49.9C446.9,263.1,457.8,238.6,429.6,254.7z M400.6,249.8c-5.9,6.2-14,8.9-21.2,13.3
		C386.5,262.4,406.9,259.3,400.6,249.8z M77.2,338.2C35.5,408,12.5,503.3,47,580C82.5,509,76.9,417.8,77.2,338.2z"/>
</g>
<g>
	<path class="st1" d="M596.4,282.8l4.8-5.2c3.4,5.9,8.1,8.7,12.7,8.7c8.4,0,12.2-4.8,12.2-15.7v-37.4h-24.7v-7.2h32.4v45.3
		c0,12.4-5,22.5-19.7,22.5C607.5,293.9,600.5,290.4,596.4,282.8z"/>
	<path class="st1" d="M658.5,285.3c0-5.1,3.2-8.6,7.3-8.6c4.1,0,7.3,3.5,7.3,8.6c0,5.2-3.2,8.6-7.3,8.6
		C661.8,293.9,658.5,290.4,658.5,285.3z"/>
	<path class="st1" d="M711.5,284.1l4.5-5.9c4.5,5,10.6,8.2,17.3,8.2c8.1,0,12.8-4.4,12.8-10.4c0-7.1-4.6-9.1-10.6-11.9l-8.6-4.3
		c-5.9-2.6-12.7-7.3-12.7-17.1c0-10.1,8.1-17.6,19.4-17.6c7.4,0,13.9,3.3,18.2,8.2l-4,5.5c-3.9-3.8-8.4-6.2-14.5-6.2
		c-6.9,0-11.5,3.6-11.5,9.6c0,6.4,5.5,8.7,10.6,10.9l8.3,4.2c7.3,3.2,13.1,7.9,13.1,17.7c0,10.5-7.9,18.9-20.9,18.9
		C724.4,293.9,716.9,290,711.5,284.1z"/>
	<path class="st1" d="M762.3,268.2c0-16.5,11.2-25.9,24.4-25.9c7.1,0,12.4,3.2,16,7.2l-3.7,5.4c-3.6-3.4-7.4-5.6-12-5.6
		c-10.1,0-17,7.6-17,18.9c0,11.2,6.9,18.7,16.9,18.7c5.4,0,9.9-2.7,13.5-6.2l3.3,5.5c-4.9,4.9-10.9,7.7-17.4,7.7
		C772.6,293.9,762.3,284.5,762.3,268.2z"/>
	<path class="st1" d="M810.1,268.2c0-16.5,10.1-25.9,21.6-25.9c11.5,0,21.6,9.4,21.6,25.9c0,16.3-10.1,25.7-21.6,25.7
		C820.2,293.9,810.1,284.5,810.1,268.2z M845.8,268.2c0-11.3-5.6-18.9-14-18.9c-8.4,0-14,7.6-14,18.9c0,11.2,5.6,18.7,14,18.7
		C840.2,286.9,845.8,279.4,845.8,268.2z"/>
	<path class="st1" d="M872.9,273.5v-23.3h-12.4V244l12.7-0.5l1-15.8h6.2v15.8h21.5v6.8h-21.5v23.4c0,8.8,2.6,13.4,11.1,13.4
		c4.1,0,7.3-0.9,10.5-2.2l1.6,6.2c-4,1.6-8.2,2.9-13.7,2.9C877.1,293.9,872.9,285.7,872.9,273.5z"/>
	<path class="st1" d="M922.5,273.5v-23.3h-12.4V244l12.7-0.5l1-15.8h6.2v15.8h21.5v6.8H930v23.4c0,8.8,2.6,13.4,11.1,13.4
		c4.1,0,7.3-0.9,10.5-2.2l1.6,6.2c-4,1.6-8.2,2.9-13.7,2.9C926.7,293.9,922.5,285.7,922.5,273.5z"/>
	<path class="st1" d="M1012.1,226.2h18.5c12,0,20.7,4.9,20.7,18.7c0,13.3-8.7,19.6-20.7,19.6h-10.8v28.1h-7.7V226.2z M1029.5,257.7
		c9.2,0,14.3-4.3,14.3-12.8c0-8.7-5.1-11.8-14.3-11.8h-9.7v24.6H1029.5z M1035,257.8l18,34.8h-8.6l-15.4-30.4L1035,257.8z"/>
	<path class="st1" d="M1059.7,274v-30.6h7.5v29.5c0,9.2,2.9,13.7,10.1,13.7c5.1,0,8.7-2.6,13.6-9v-34.1h7.5v49.2h-6.2l-0.6-8.6h-0.4
		c-4.4,5.8-9.6,9.8-16.3,9.8C1064.5,293.9,1059.7,287,1059.7,274z"/>
	<path class="st1" d="M1107.6,243.5h6l0.6,6.5h0.2c2.3-4.6,5-7.7,10-7.7c4.3,0,7,2.8,8.3,8.5c2.5-5.3,5.2-8.5,10.3-8.5
		c6.1,0,9.7,5.4,9.7,15.2v35.2h-7.4V258c0-5.7-1.4-8.6-4.7-8.6c-3.1,0-4.7,2.5-7,7.6v35.6h-6.9V258c0-5.7-1.3-8.6-4.5-8.6
		c-3.1,0-5.1,2.5-7.2,7.6v35.6h-7.4V243.5z"/>
	<path class="st1" d="M1160.4,243.5h6.1l0.6,6.3h0.3c4.1-4.4,9.8-7.5,15.2-7.5c11.8,0,18.1,9.8,18.1,25.1c0,16.7-9.4,26.5-19.9,26.5
		c-4.1,0-9.1-2.3-13.1-6.4h-0.2l0.4,9.3v16.6h-7.5V243.5z M1193,267.4c0-10.8-3.6-18-12.4-18c-3.9,0-8.4,2.2-12.8,7.3v24.5
		c4.1,4.2,8.7,5.7,11.6,5.7C1187.3,286.8,1193,279.5,1193,267.4z"/>
	<path class="st1" d="M1220.2,273.5v-23.3h-12.4V244l12.7-0.5l1-15.8h6.2v15.8h21.5v6.8h-21.5v23.4c0,8.8,2.6,13.4,11.1,13.4
		c4.1,0,7.3-0.9,10.5-2.2l1.6,6.2c-4,1.6-8.2,2.9-13.7,2.9C1224.3,293.9,1220.2,285.7,1220.2,273.5z"/>
	<path class="st1" d="M1257.6,288.2l29.9-38h-26.6v-6.8h37.3v4.5l-29.9,37.9h30.8v6.9h-41.5V288.2z"/>
</g>
</svg>
