<?xml version="1.0" encoding="utf-8"?>
<!-- Generator: Adobe Illustrator 25.2.1, SVG Export Plug-In . SVG Version: 6.00 Build 0)  -->
<svg version="1.1" id="Layer_1" xmlns="http://www.w3.org/2000/svg" xmlns:xlink="http://www.w3.org/1999/xlink" x="0px" y="0px"
	 viewBox="0 0 1302.5 596.9" style="enable-background:new 0 0 1302.5 596.9;" xml:space="preserve">
<style type="text/css">
	.st0{fill:#526B97;}
	.st1{fill:#FFFFFF;}
</style>
<g>
	<path class="st0" d="M467,7.2c22.3-41.4,16.7,108.2,18.8,120.5c-11,38,30.6-4.9,31.6,30.6c-4.8,21.3-22.3,34.6-36.2,49.9
		c-7.9,27.4-0.9,30.7,24,19.6c30.3-4.7,64.5-20.5,94.4-10.3c-22.6,44.1-91.8,51.4-120.1,92.7c22.9,24.1,67.4,15.2,98.8,19.7
		c66.8,1.6,140.3,5,203.4,3.3c44.2,0.1,91.4-2.4,133.8,5.8c-36.2,3.3-74.2-0.7-111.2,1.6c-31.6-3.8-427.2,25.1-310.9-54.8
		c12.7-12.7,137.6-73.6,72.3-62.5c-30.3,4.9-61.8,11.8-89.7,22.2c-3.5,22.9-41.9,152.9-62.7,75.7c-4.8-61.4,24.3-51-33.5-50.2
		c-1,42.7-1.2,88.1,12.3,128.7c0.8-10.3,7.4-35.4,15.5-34.7c-13.4,68.4-25.5,36.5-34.7-5.9c-6.6-81.7,4.5-164.4,7.1-246.9
		c-13.1,27.7-45.4,203.2-87.7,200.6c-17.3,0.8-30.1-30.8-42.6-19.8c-4.3,1.2-9.1-0.6-11.7-4c-6.4-5-14.2,6.9-22.7,0.6
		c-11.8-3.7-25-4.9-36.1,3.7c-10.8-3.3-4.4,5.3-1.6,12.5c0,11.9,16.3,29.7,5.3,29.5c-3.3-4.6-6.4-7.9-1.2-10.1
		c-1.7,0.3-3.8,2-5.1,0.2c-17.2-31.3-15.6-80.1-50.4-29.6c-32.7,24.7-18.6,61-21.1,96.2c-4.2,61.7-2.9,125.8-28,183.9
		c-48.2,61.1-37.9-112.8-30.2-134.5c4-43.6,34.2-87.2,47.7-125.5c-5.8-50.7-10.5-92.3-26.1-137.1c-8.1-23.5-20.2-45-32.1-66.9
		c-3.2-7.5-21.1-13.9-8.9-20.8c50,25.5,79,77.5,105.7,124.8c5.1,10.7,11.8,18,14.8,26.9c4.7,13.6,9.2,12.2,19.2,1.6
		c37.8-35.1,79.5-28.9,40.1,24.4c-3,4.4-12.3,12.1-0.8,7.8c25,13.2,21.9-5.3,35.2,2.8c8.5,12.2,13.9-10.3,32.7,14.7
		c26.3,26.2,37.8-3.4,48-26.3c12.4-29.6,26.1-64.1,30.2-90.5c13-27.1,38.9-159.5,37.4-54c-1.9,34.5-5.6,69.5-6.6,104.1
		c-0.4,14.4-12.4,53.1,7.4,31.1c17.3-10.2,33.8-17.4,37.9-38.3c5.8-31.3,39.8-49.3,47.9-75.3c0.1-29.5,1.9-61.1-1.2-88.9
		c-1.3-26,3.4-25.1-10.4-8.8C462.1,33.7,474,20.8,467,7.2z M380.1,110.5 M45.4,111.3c32.6,62.6,51.3,121.3,56.9,188.9
		c-2.5,23.3,37.4-31.3,44.4-40.3C121,208.7,93.8,153.1,45.4,111.3z M483.6,158.6c3.9,10-9.4,50.3,7.1,30.7
		C510,172,521.2,130.7,483.6,158.6z M460.1,178.6c-8.8,9-40.2,63.9-20.2,48.8c11.2-7,22.8-13.8,32.7-22.6
		C473.5,186.6,482.6,147.7,460.1,178.6z M468.3,217.3c-10.1,5.2-62.1,39.6-34.2,33.7C452,245.8,481.3,236.7,468.3,217.3z
		 M211.4,228.1c-37.8,14.5-67.4,36.1-38.7,58.3C190.3,278.2,229.2,244.5,211.4,228.1z M446.6,254.7c-37.7,3.5-26.3,51.6-16,76.9
		c5.2,14.3,24.8-39.7,26-49.9C463.9,263.1,474.8,238.6,446.6,254.7z M417.6,249.8c-5.9,6.2-14,8.9-21.2,13.3
		C403.5,262.4,423.9,259.3,417.6,249.8z M94.2,338.2C52.5,408,29.5,503.3,64,580C99.5,509,93.9,417.8,94.2,338.2z"/>
</g>
<g>
	<path class="st1" d="M7.4,305.9l8.7-8.4c6.2,9.5,14.8,14.1,23.2,14.1c15.3,0,22.2-7.7,22.2-25.5v-60.7h-45v-11.7h59v73.5
		c0,20.1-9,36.5-35.8,36.5C27.6,323.8,14.9,318.2,7.4,305.9z"/>
	<path class="st1" d="M120.6,309.8c0-8.2,5.9-14,13.3-14c7.4,0,13.3,5.8,13.3,14c0,8.4-5.9,14-13.3,14
		C126.5,323.8,120.6,318.2,120.6,309.8z"/>
	<path class="st1" d="M217.2,307.9l8.2-9.5c8.2,8.1,19.4,13.3,31.6,13.3c14.8,0,23.3-7.1,23.3-16.9c0-11.5-8.4-14.8-19.2-19.4
		l-15.6-6.9c-10.7-4.3-23.2-11.8-23.2-27.8c0-16.4,14.8-28.6,35.3-28.6c13.5,0,25.3,5.4,33.2,13.3l-7.2,8.9
		c-7.1-6.2-15.3-10-26.5-10c-12.5,0-20.9,5.9-20.9,15.6c0,10.4,10,14.1,19.2,17.8l15.1,6.7c13.3,5.3,23.8,12.8,23.8,28.8
		c0,17.1-14.5,30.7-38.1,30.7C240.6,323.8,226.9,317.6,217.2,307.9z"/>
	<path class="st1" d="M309.8,282.1c0-26.8,20.4-42.1,44.6-42.1c13,0,22.5,5.3,29.1,11.7l-6.7,8.7c-6.6-5.6-13.5-9-21.9-9
		c-18.4,0-31.1,12.3-31.1,30.7c0,18.2,12.5,30.4,30.7,30.4c9.9,0,18.1-4.4,24.7-10l6.1,8.9c-8.9,7.9-19.9,12.5-31.7,12.5
		C328.5,323.8,309.8,308.5,309.8,282.1z"/>
	<path class="st1" d="M396.9,282.1c0-26.8,18.4-42.1,39.5-42.1s39.5,15.3,39.5,42.1c0,26.5-18.4,41.8-39.5,41.8
		S396.9,308.5,396.9,282.1z M461.9,282.1c0-18.4-10.2-30.7-25.5-30.7c-15.3,0-25.5,12.3-25.5,30.7c0,18.2,10.2,30.4,25.5,30.4
		C451.7,312.5,461.9,300.3,461.9,282.1z"/>
	<path class="st1" d="M511.4,290.8V253h-22.7v-10.2l23.2-0.8l1.8-25.6H525v25.6h39.1v11H525v38c0,14.3,4.8,21.7,20.2,21.7
		c7.4,0,13.3-1.5,19.1-3.6l3,10c-7.2,2.6-15,4.8-25,4.8C518.9,323.8,511.4,310.5,511.4,290.8z"/>
	<path class="st1" d="M601.8,290.8V253h-22.7v-10.2l23.2-0.8l1.8-25.6h11.3v25.6h39.1v11h-39.1v38c0,14.3,4.8,21.7,20.2,21.7
		c7.4,0,13.3-1.5,19.1-3.6l3,10c-7.2,2.6-15,4.8-25,4.8C609.4,323.8,601.8,310.5,601.8,290.8z"/>
	<path class="st1" d="M765,214h33.7c21.9,0,37.8,7.9,37.8,30.4c0,21.5-15.9,31.9-37.8,31.9H779v45.5h-14V214z M796.8,265.1
		c16.8,0,26-6.9,26-20.7c0-14.1-9.2-19.2-26-19.2H779v40H796.8z M806.8,265.3l32.9,56.6h-15.6L796,272.5L806.8,265.3z"/>
	<path class="st1" d="M851.9,291.6v-49.7h13.6v47.8c0,15,5.3,22.2,18.4,22.2c9.2,0,15.9-4.3,24.8-14.6v-55.4h13.6v79.9H911l-1.2-14
		h-0.7c-8.1,9.4-17.4,15.9-29.8,15.9C860.6,323.8,851.9,312.6,851.9,291.6z"/>
	<path class="st1" d="M939.2,241.9H950l1.2,10.5h0.3c4.1-7.4,9-12.5,18.2-12.5c7.9,0,12.8,4.6,15.1,13.8c4.6-8.5,9.5-13.8,18.7-13.8
		c11.2,0,17.8,8.7,17.8,24.7v57.2h-13.5v-56.2c0-9.2-2.6-14-8.5-14c-5.6,0-8.5,4.1-12.8,12.3v57.9H974v-56.2c0-9.2-2.3-14-8.2-14
		c-5.6,0-9.2,4.1-13.2,12.3v57.9h-13.5V241.9z"/>
	<path class="st1" d="M1035.3,241.9h11.2l1.2,10.2h0.5c7.4-7.1,17.9-12.2,27.6-12.2c21.5,0,33,15.9,33,40.8
		c0,27.1-17.1,43.1-36.3,43.1c-7.4,0-16.6-3.8-23.8-10.4h-0.3l0.7,15.1v27h-13.6V241.9z M1094.8,280.7c0-17.6-6.6-29.3-22.5-29.3
		c-7.1,0-15.3,3.6-23.3,11.8v39.8c7.4,6.7,15.8,9.2,21.2,9.2C1084.3,312.3,1094.8,300.5,1094.8,280.7z"/>
	<path class="st1" d="M1144.3,290.8V253h-22.7v-10.2l23.2-0.8l1.8-25.6h11.3v25.6h39.1v11H1158v38c0,14.3,4.8,21.7,20.2,21.7
		c7.4,0,13.3-1.5,19.1-3.6l3,10c-7.2,2.6-15,4.8-25,4.8C1151.9,323.8,1144.3,310.5,1144.3,290.8z"/>
	<path class="st1" d="M1212.6,314.6l54.6-61.7h-48.5v-11h68.1v7.2l-54.6,61.5h56.1v11.2h-75.6V314.6z"/>
</g>
</svg>
